<?xml version="1.0" encoding="UTF-8" standalone="no"?>
<svg
   version="1.0"
   width="281.95285"
   height="298"
   viewBox="0 0 281.95285 298"
   preserveAspectRatio="xMidYMid meet"
   id="svg846"
   sodipodi:docname="favicon.svg"
   inkscape:version="1.1.1 (3bf5ae0d25, 2021-09-20)"
   xmlns:inkscape="http://www.inkscape.org/namespaces/inkscape"
   xmlns:sodipodi="http://sodipodi.sourceforge.net/DTD/sodipodi-0.dtd"
   xmlns="http://www.w3.org/2000/svg"
   xmlns:svg="http://www.w3.org/2000/svg"
   xmlns:rdf="http://www.w3.org/1999/02/22-rdf-syntax-ns#"
   xmlns:dc="http://purl.org/dc/elements/1.1/">
  <defs
     id="defs850" />
  <sodipodi:namedview
     id="namedview848"
     pagecolor="#ffffff"
     bordercolor="#666666"
     borderopacity="1.0"
     inkscape:pageshadow="2"
     inkscape:pageopacity="0.0"
     inkscape:pagecheckerboard="0"
     showgrid="false"
     fit-margin-top="0"
     fit-margin-left="0"
     fit-margin-right="0"
     fit-margin-bottom="0"
     inkscape:zoom="1.1375"
     inkscape:cx="436.04396"
     inkscape:cy="16.703297"
     inkscape:window-width="3840"
     inkscape:window-height="2054"
     inkscape:window-x="2549"
     inkscape:window-y="-11"
     inkscape:window-maximized="1"
     inkscape:current-layer="svg846" />
  <metadata
     id="metadata838">
    <rdf:RDF>
      <rdf:Description
         dc:format="image/svg+xml"
         dc:Label="1"
         dc:ContentProducer="001191330110MACRLGPT8B00000"
         dc:ProduceID="314521032"
         dc:ReservedCode1="juDF6UltNJH0oSVFcorJ4I+P+ZVDk6m99Qda+hZ8X/M="
         dc:ContentPropagator="001191330110MACRLGPT8B00000"
         dc:PropagateID="314521032"
         dc:ReservedCode2="juDF6UltNJH0oSVFcorJ4I+P+ZVDk6m99Qda+hZ8X/M=" />
    </rdf:RDF>
  </metadata>
  <g
     transform="matrix(0.1,0,0,-0.1,-246.04714,549)"
     fill="#000000"
     stroke="none"
     id="g844"
     style="stroke-width:0.982677;stroke-miterlimit:4;stroke-dasharray:none">
    <path
       d="m 2670,5385 v -105 h 1133 c 1114,0 1133,0 1165,-20 53,-32 68,-99 34,-155 -11,-16 -115,-145 -233,-286 -413,-494 -925,-1106 -1104,-1319 -372,-444 -395,-473 -386,-484 5,-6 43,-35 84,-63 l 74,-52 86,102 c 316,378 855,1022 1032,1232 116,138 222,264 235,281 14,18 91,110 171,205 193,230 226,275 246,334 53,158 -18,330 -165,402 l -57,28 -1157,3 -1158,2 z"
       id="path840"
       style="stroke-width:0.982677;stroke-miterlimit:4;stroke-dasharray:none" />
    <path
       d="m 4220,5077 c -41,-53 -491,-591 -1478,-1766 -123,-146 -235,-288 -250,-316 -37,-73 -42,-188 -12,-269 29,-75 91,-143 167,-182 l 58,-29 1288,-3 1287,-2 v 105 105 H 4016 2753 l -34,23 c -45,30 -66,85 -51,135 8,26 93,134 270,342 142,168 378,449 526,625 434,518 920,1098 938,1121 17,20 15,22 -66,82 -46,34 -85,62 -87,61 -2,0 -15,-14 -29,-32 z"
       id="path842"
       style="stroke-width:0.982677;stroke-miterlimit:4;stroke-dasharray:none" />
  </g>
</svg>
