<svg xmlns="http://www.w3.org/2000/svg" xmlns:xlink="http://www.w3.org/1999/xlink" contentStyleType="text/css" data-diagram-type="CLASS" height="344px" preserveAspectRatio="none" style="width:482px;height:344px;background:#FFFFFF;" version="1.1" viewBox="0 0 482 344" width="482px" zoomAndPan="magnify"><defs/><g><!--class BMW--><g class="entity" data-entity="BMW" data-source-line="1" data-uid="ent0002" id="entity_BMW"><rect fill="#F1F1F1" height="48" rx="2.5" ry="2.5" style="stroke:#181818;stroke-width:0.5;" width="67.5264" x="206.5" y="7"/><ellipse cx="221.5" cy="23" fill="#A9DCDF" rx="11" ry="11" style="stroke:#181818;stroke-width:1;"/><path d="M221.6094,18.3438 L220.4531,23.4219 L222.7813,23.4219 L221.6094,18.3438 Z M220.125,16.1094 L223.1094,16.1094 L226.4688,28.5 L224.0156,28.5 L223.25,25.4375 L219.9688,25.4375 L219.2188,28.5 L216.7813,28.5 L220.125,16.1094 Z " fill="#000000"/><text fill="#000000" font-family="sans-serif" font-size="14" font-style="italic" lengthAdjust="spacing" textLength="35.5264" x="235.5" y="27.8467">BMW</text><line style="stroke:#181818;stroke-width:0.5;" x1="207.5" x2="273.0264" y1="39" y2="39"/><line style="stroke:#181818;stroke-width:0.5;" x1="207.5" x2="273.0264" y1="47" y2="47"/></g><!--class BMW320--><g class="entity" data-entity="BMW320" data-source-line="2" data-uid="ent0003" id="entity_BMW320"><rect fill="#F1F1F1" height="48" rx="2.5" ry="2.5" style="stroke:#181818;stroke-width:0.5;" width="94.248" x="33.5" y="124"/><ellipse cx="48.5" cy="140" fill="#ADD1B2" rx="11" ry="11" style="stroke:#181818;stroke-width:1;"/><path d="M51.4688,145.6406 Q50.8906,145.9375 50.25,146.0781 Q49.6094,146.2344 48.9063,146.2344 Q46.4063,146.2344 45.0781,144.5938 Q43.7656,142.9375 43.7656,139.8125 Q43.7656,136.6875 45.0781,135.0313 Q46.4063,133.375 48.9063,133.375 Q49.6094,133.375 50.25,133.5313 Q50.9063,133.6875 51.4688,133.9844 L51.4688,136.7031 Q50.8438,136.125 50.25,135.8594 Q49.6563,135.5781 49.0313,135.5781 Q47.6875,135.5781 47,136.6563 Q46.3125,137.7188 46.3125,139.8125 Q46.3125,141.9063 47,142.9844 Q47.6875,144.0469 49.0313,144.0469 Q49.6563,144.0469 50.25,143.7813 Q50.8438,143.5 51.4688,142.9219 L51.4688,145.6406 Z " fill="#000000"/><text fill="#000000" font-family="sans-serif" font-size="14" lengthAdjust="spacing" textLength="62.248" x="62.5" y="144.8467">BMW320</text><line style="stroke:#181818;stroke-width:0.5;" x1="34.5" x2="126.748" y1="156" y2="156"/><line style="stroke:#181818;stroke-width:0.5;" x1="34.5" x2="126.748" y1="164" y2="164"/></g><!--class BMW523--><g class="entity" data-entity="BMW523" data-source-line="3" data-uid="ent0004" id="entity_BMW523"><rect fill="#F1F1F1" height="48" rx="2.5" ry="2.5" style="stroke:#181818;stroke-width:0.5;" width="94.248" x="355.5" y="124"/><ellipse cx="370.5" cy="140" fill="#ADD1B2" rx="11" ry="11" style="stroke:#181818;stroke-width:1;"/><path d="M373.4688,145.6406 Q372.8906,145.9375 372.25,146.0781 Q371.6094,146.2344 370.9063,146.2344 Q368.4063,146.2344 367.0781,144.5938 Q365.7656,142.9375 365.7656,139.8125 Q365.7656,136.6875 367.0781,135.0313 Q368.4063,133.375 370.9063,133.375 Q371.6094,133.375 372.25,133.5313 Q372.9063,133.6875 373.4688,133.9844 L373.4688,136.7031 Q372.8438,136.125 372.25,135.8594 Q371.6563,135.5781 371.0313,135.5781 Q369.6875,135.5781 369,136.6563 Q368.3125,137.7188 368.3125,139.8125 Q368.3125,141.9063 369,142.9844 Q369.6875,144.0469 371.0313,144.0469 Q371.6563,144.0469 372.25,143.7813 Q372.8438,143.5 373.4688,142.9219 L373.4688,145.6406 Z " fill="#000000"/><text fill="#000000" font-family="sans-serif" font-size="14" lengthAdjust="spacing" textLength="62.248" x="384.5" y="144.8467">BMW523</text><line style="stroke:#181818;stroke-width:0.5;" x1="356.5" x2="448.748" y1="156" y2="156"/><line style="stroke:#181818;stroke-width:0.5;" x1="356.5" x2="448.748" y1="164" y2="164"/></g><!--class FactoryBMW--><g class="entity" data-entity="FactoryBMW" data-source-line="4" data-uid="ent0005" id="entity_FactoryBMW"><rect fill="#F1F1F1" height="64.2969" rx="2.5" ry="2.5" style="stroke:#181818;stroke-width:0.5;" width="157.4414" x="163" y="116"/><ellipse cx="194.8706" cy="132" fill="#B4A7E5" rx="11" ry="11" style="stroke:#181818;stroke-width:1;"/><path d="M190.7925,127.7656 L190.7925,125.6094 L198.1831,125.6094 L198.1831,127.7656 L195.7144,127.7656 L195.7144,135.8438 L198.1831,135.8438 L198.1831,138 L190.7925,138 L190.7925,135.8438 L193.2612,135.8438 L193.2612,127.7656 L190.7925,127.7656 Z " fill="#000000"/><text fill="#000000" font-family="sans-serif" font-size="14" font-style="italic" lengthAdjust="spacing" textLength="87.9512" x="212.6196" y="136.8467">FactoryBMW</text><line style="stroke:#181818;stroke-width:0.5;" x1="164" x2="319.4414" y1="148" y2="148"/><line style="stroke:#181818;stroke-width:0.5;" x1="164" x2="319.4414" y1="156" y2="156"/><ellipse cx="174" cy="169.6484" fill="#84BE84" rx="3" ry="3" style="stroke:#038048;stroke-width:1;"/><text fill="#000000" font-family="sans-serif" font-size="14" font-style="italic" lengthAdjust="spacing" textLength="131.4414" x="183" y="172.9951">createBMW():BMW</text></g><!--class FactoryBMW320--><g class="entity" data-entity="FactoryBMW320" data-source-line="8" data-uid="ent0006" id="entity_FactoryBMW320"><rect fill="#F1F1F1" height="48" rx="2.5" ry="2.5" style="stroke:#181818;stroke-width:0.5;" width="146.6729" x="7" y="273.5"/><ellipse cx="22" cy="289.5" fill="#ADD1B2" rx="11" ry="11" style="stroke:#181818;stroke-width:1;"/><path d="M24.9688,295.1406 Q24.3906,295.4375 23.75,295.5781 Q23.1094,295.7344 22.4063,295.7344 Q19.9063,295.7344 18.5781,294.0938 Q17.2656,292.4375 17.2656,289.3125 Q17.2656,286.1875 18.5781,284.5313 Q19.9063,282.875 22.4063,282.875 Q23.1094,282.875 23.75,283.0313 Q24.4063,283.1875 24.9688,283.4844 L24.9688,286.2031 Q24.3438,285.625 23.75,285.3594 Q23.1563,285.0781 22.5313,285.0781 Q21.1875,285.0781 20.5,286.1563 Q19.8125,287.2188 19.8125,289.3125 Q19.8125,291.4063 20.5,292.4844 Q21.1875,293.5469 22.5313,293.5469 Q23.1563,293.5469 23.75,293.2813 Q24.3438,293 24.9688,292.4219 L24.9688,295.1406 Z " fill="#000000"/><text fill="#000000" font-family="sans-serif" font-size="14" lengthAdjust="spacing" textLength="114.6729" x="36" y="294.3467">FactoryBMW320</text><line style="stroke:#181818;stroke-width:0.5;" x1="8" x2="152.6729" y1="305.5" y2="305.5"/><line style="stroke:#181818;stroke-width:0.5;" x1="8" x2="152.6729" y1="313.5" y2="313.5"/></g><!--class FactoryBMW523--><g class="entity" data-entity="FactoryBMW523" data-source-line="9" data-uid="ent0007" id="entity_FactoryBMW523"><rect fill="#F1F1F1" height="48" rx="2.5" ry="2.5" style="stroke:#181818;stroke-width:0.5;" width="146.6729" x="329" y="273.5"/><ellipse cx="344" cy="289.5" fill="#ADD1B2" rx="11" ry="11" style="stroke:#181818;stroke-width:1;"/><path d="M346.9688,295.1406 Q346.3906,295.4375 345.75,295.5781 Q345.1094,295.7344 344.4063,295.7344 Q341.9063,295.7344 340.5781,294.0938 Q339.2656,292.4375 339.2656,289.3125 Q339.2656,286.1875 340.5781,284.5313 Q341.9063,282.875 344.4063,282.875 Q345.1094,282.875 345.75,283.0313 Q346.4063,283.1875 346.9688,283.4844 L346.9688,286.2031 Q346.3438,285.625 345.75,285.3594 Q345.1563,285.0781 344.5313,285.0781 Q343.1875,285.0781 342.5,286.1563 Q341.8125,287.2188 341.8125,289.3125 Q341.8125,291.4063 342.5,292.4844 Q343.1875,293.5469 344.5313,293.5469 Q345.1563,293.5469 345.75,293.2813 Q346.3438,293 346.9688,292.4219 L346.9688,295.1406 Z " fill="#000000"/><text fill="#000000" font-family="sans-serif" font-size="14" lengthAdjust="spacing" textLength="114.6729" x="358" y="294.3467">FactoryBMW523</text><line style="stroke:#181818;stroke-width:0.5;" x1="330" x2="474.6729" y1="305.5" y2="305.5"/><line style="stroke:#181818;stroke-width:0.5;" x1="330" x2="474.6729" y1="313.5" y2="313.5"/></g><!--class ??--><g class="entity" data-entity=".." data-source-line="11" data-uid="ent0008" id="entity_.."><rect fill="#F1F1F1" height="80.5938" rx="2.5" ry="2.5" style="stroke:#181818;stroke-width:0.5;" width="103.6904" x="189.5" y="257"/><ellipse cx="224.1607" cy="273" fill="#ADD1B2" rx="11" ry="11" style="stroke:#181818;stroke-width:1;"/><path d="M227.1294,278.6406 Q226.5513,278.9375 225.9107,279.0781 Q225.2701,279.2344 224.5669,279.2344 Q222.0669,279.2344 220.7388,277.5938 Q219.4263,275.9375 219.4263,272.8125 Q219.4263,269.6875 220.7388,268.0313 Q222.0669,266.375 224.5669,266.375 Q225.2701,266.375 225.9107,266.5313 Q226.5669,266.6875 227.1294,266.9844 L227.1294,269.7031 Q226.5044,269.125 225.9107,268.8594 Q225.3169,268.5781 224.6919,268.5781 Q223.3482,268.5781 222.6607,269.6563 Q221.9732,270.7188 221.9732,272.8125 Q221.9732,274.9063 222.6607,275.9844 Q223.3482,277.0469 224.6919,277.0469 Q225.3169,277.0469 225.9107,276.7813 Q226.5044,276.5 227.1294,275.9219 L227.1294,278.6406 Z " fill="#000000"/><text fill="#000000" font-family="sans-serif" font-size="14" lengthAdjust="spacing" textLength="28" x="242.5297" y="277.8467">&#23458;&#25143;</text><line style="stroke:#181818;stroke-width:0.5;" x1="190.5" x2="292.1904" y1="289" y2="289"/><rect fill="none" height="6" style="stroke:#C82930;stroke-width:1;" width="6" x="197.5" y="299.6484"/><text fill="#000000" font-family="sans-serif" font-size="14" lengthAdjust="spacing" textLength="77.6904" x="209.5" y="305.9951">&#23453;&#39532;320:int</text><rect fill="none" height="6" style="stroke:#C82930;stroke-width:1;" width="6" x="197.5" y="315.9453"/><text fill="#000000" font-family="sans-serif" font-size="14" lengthAdjust="spacing" textLength="77.6904" x="209.5" y="322.292">&#23453;&#39532;523:int</text><line style="stroke:#181818;stroke-width:0.5;" x1="190.5" x2="292.1904" y1="329.5938" y2="329.5938"/></g><!--reverse link BMW to BMW320--><g class="link" data-entity-1="BMW" data-entity-2="BMW320" data-source-line="16" data-uid="lnk9" id="link_BMW_BMW320"><path codeLine="16" d="M193.5044,65.7764 C165.6544,85.7964 140.31,104.01 112.56,123.96" fill="none" id="BMW-backto-BMW320" style="stroke:#181818;stroke-width:1;"/><polygon fill="none" points="208.12,55.27,190.0023,60.9046,197.0066,70.6483,208.12,55.27" style="stroke:#181818;stroke-width:1;"/></g><!--reverse link BMW to BMW523--><g class="link" data-entity-1="BMW" data-entity-2="BMW523" data-source-line="17" data-uid="lnk10" id="link_BMW_BMW523"><path codeLine="17" d="M287.9574,65.6899 C316.1574,85.7099 341.94,104.01 370.04,123.96" fill="none" id="BMW-backto-BMW523" style="stroke:#181818;stroke-width:1;"/><polygon fill="none" points="273.28,55.27,284.4841,70.5824,291.4307,60.7974,273.28,55.27" style="stroke:#181818;stroke-width:1;"/></g><!--reverse link FactoryBMW to FactoryBMW320--><g class="link" data-entity-1="FactoryBMW" data-entity-2="FactoryBMW320" data-source-line="18" data-uid="lnk11" id="link_FactoryBMW_FactoryBMW320"><path codeLine="18" d="M194.0887,192.4403 C163.6287,220.3503 133,248.4 105.65,273.46" fill="none" id="FactoryBMW-backto-FactoryBMW320" style="stroke:#181818;stroke-width:1;stroke-dasharray:7,7;"/><polygon fill="none" points="207.36,180.28,190.0353,188.0165,198.1421,196.864,207.36,180.28" style="stroke:#181818;stroke-width:1;"/></g><!--reverse link FactoryBMW to FactoryBMW523--><g class="link" data-entity-1="FactoryBMW" data-entity-2="FactoryBMW523" data-source-line="19" data-uid="lnk12" id="link_FactoryBMW_FactoryBMW523"><path codeLine="19" d="M288.9113,192.4403 C319.3713,220.3503 350,248.4 377.35,273.46" fill="none" id="FactoryBMW-backto-FactoryBMW523" style="stroke:#181818;stroke-width:1;stroke-dasharray:7,7;"/><polygon fill="none" points="275.64,180.28,284.8579,196.864,292.9647,188.0165,275.64,180.28" style="stroke:#181818;stroke-width:1;"/></g><!--reverse link BMW523 to FactoryBMW523--><g class="link" data-entity-1="BMW523" data-entity-2="FactoryBMW523" data-source-line="20" data-uid="lnk13" id="link_BMW523_FactoryBMW523"><path codeLine="20" d="M402.5,178.05 C402.5,205.6 402.5,245.44 402.5,273.13" fill="none" id="BMW523-backto-FactoryBMW523" style="stroke:#181818;stroke-width:1;stroke-dasharray:7,7;"/><polygon fill="#181818" points="402.5,172.05,398.5,181.05,402.5,177.05,406.5,181.05,402.5,172.05" style="stroke:#181818;stroke-width:1;"/><text fill="#000000" font-family="sans-serif" font-size="13" lengthAdjust="spacing" textLength="26" x="403.5" y="223.0669">&#29983;&#20135;</text></g><!--reverse link BMW320 to FactoryBMW320--><g class="link" data-entity-1="BMW320" data-entity-2="FactoryBMW320" data-source-line="21" data-uid="lnk14" id="link_BMW320_FactoryBMW320"><path codeLine="21" d="M80.5,178.05 C80.5,205.6 80.5,245.44 80.5,273.13" fill="none" id="BMW320-backto-FactoryBMW320" style="stroke:#181818;stroke-width:1;stroke-dasharray:7,7;"/><polygon fill="#181818" points="80.5,172.05,76.5,181.05,80.5,177.05,84.5,181.05,80.5,172.05" style="stroke:#181818;stroke-width:1;"/><text fill="#000000" font-family="sans-serif" font-size="13" lengthAdjust="spacing" textLength="26" x="81.5" y="223.0669">&#29983;&#20135;</text></g><!--reverse link FactoryBMW to ??--><g class="link" data-entity-1="FactoryBMW" data-entity-2=".." data-source-line="22" data-uid="lnk15" id="link_FactoryBMW_.."><path codeLine="22" d="M241.5,186.28 C241.5,208.61 241.5,232.81 241.5,256.83" fill="none" id="FactoryBMW-backto-&#23458;&#25143;" style="stroke:#181818;stroke-width:1;stroke-dasharray:7,7;"/><polygon fill="#181818" points="241.5,180.28,237.5,189.28,241.5,185.28,245.5,189.28,241.5,180.28" style="stroke:#181818;stroke-width:1;"/></g><!--SRC=[IqmgBYbAJ2vHICv9B2vMSF8DvuApZ8qC41nJ8sEkpBoIrAAqnEHK1JUWbloYIg2uGZMN0X1eArGdGesgLKWkIaqiIGLAQcXQWKoivOAQWz26C1iX1h82AlXqtQ9d7TkXPki2kNDVhbm3r6C5T0AA650FM0ne1SWnDZMwkZ2d8_D1HYEvsQP6Jm_DCRXbGNeXb8ADdXwAkDNpAVEVx5hE1J43LHhaMgWqijb0eo6U0m00]--></g></svg>