<svg xmlns="http://www.w3.org/2000/svg" xmlns:xlink="http://www.w3.org/1999/xlink" contentStyleType="text/css" data-diagram-type="CLASS" height="300px" preserveAspectRatio="none" style="width:1235px;height:300px;background:#FFFFFF;" version="1.1" viewBox="0 0 1235 300" width="1235px" zoomAndPan="magnify"><defs/><g><!--class IProductFactory--><g class="entity" data-entity="IProductFactory" data-source-line="2" data-uid="ent0002" id="entity_IProductFactory"><rect fill="#F1F1F1" height="80.5938" rx="2.5" ry="2.5" style="stroke:#181818;stroke-width:0.5;" width="243.2666" x="146" y="23"/><ellipse cx="208.2515" cy="39" fill="#B4A7E5" rx="11" ry="11" style="stroke:#181818;stroke-width:1;"/><path d="M204.1733,34.7656 L204.1733,32.6094 L211.564,32.6094 L211.564,34.7656 L209.0952,34.7656 L209.0952,42.8438 L211.564,42.8438 L211.564,45 L204.1733,45 L204.1733,42.8438 L206.6421,42.8438 L206.6421,34.7656 L204.1733,34.7656 Z " fill="#000000"/><text fill="#000000" font-family="sans-serif" font-size="14" font-style="italic" lengthAdjust="spacing" textLength="110.2637" x="228.7515" y="43.8467">IProductFactory</text><line style="stroke:#181818;stroke-width:0.5;" x1="147" x2="388.2666" y1="55" y2="55"/><line style="stroke:#181818;stroke-width:0.5;" x1="147" x2="388.2666" y1="63" y2="63"/><ellipse cx="157" cy="76.6484" fill="#84BE84" rx="3" ry="3" style="stroke:#038048;stroke-width:1;"/><text fill="#000000" font-family="sans-serif" font-size="14" font-style="italic" lengthAdjust="spacing" textLength="214.3682" x="166" y="79.9951">phoneProduct():IPhoneProduct</text><ellipse cx="157" cy="92.9453" fill="#84BE84" rx="3" ry="3" style="stroke:#038048;stroke-width:1;"/><text fill="#000000" font-family="sans-serif" font-size="14" font-style="italic" lengthAdjust="spacing" textLength="217.2666" x="166" y="96.292">routerProduct():IRouterProduct</text></g><!--class IPhoneProduct--><g class="entity" data-entity="IPhoneProduct" data-source-line="7" data-uid="ent0003" id="entity_IPhoneProduct"><rect fill="#F1F1F1" height="113.1875" rx="2.5" ry="2.5" style="stroke:#181818;stroke-width:0.5;" width="139.5723" x="650.5" y="7"/><ellipse cx="668.3648" cy="23" fill="#B4A7E5" rx="11" ry="11" style="stroke:#181818;stroke-width:1;"/><path d="M664.2867,18.7656 L664.2867,16.6094 L671.6773,16.6094 L671.6773,18.7656 L669.2085,18.7656 L669.2085,26.8438 L671.6773,26.8438 L671.6773,29 L664.2867,29 L664.2867,26.8438 L666.7554,26.8438 L666.7554,18.7656 L664.2867,18.7656 Z " fill="#000000"/><text fill="#000000" font-family="sans-serif" font-size="14" font-style="italic" lengthAdjust="spacing" textLength="101.2061" x="683.0014" y="27.8467">IPhoneProduct</text><line style="stroke:#181818;stroke-width:0.5;" x1="651.5" x2="789.0723" y1="39" y2="39"/><line style="stroke:#181818;stroke-width:0.5;" x1="651.5" x2="789.0723" y1="47" y2="47"/><ellipse cx="661.5" cy="60.6484" fill="#84BE84" rx="3" ry="3" style="stroke:#038048;stroke-width:1;"/><text fill="#000000" font-family="sans-serif" font-size="14" font-style="italic" lengthAdjust="spacing" textLength="77.875" x="670.5" y="63.9951">start():void</text><ellipse cx="661.5" cy="76.9453" fill="#84BE84" rx="3" ry="3" style="stroke:#038048;stroke-width:1;"/><text fill="#000000" font-family="sans-serif" font-size="14" font-style="italic" lengthAdjust="spacing" textLength="113.5723" x="670.5" y="80.292">shutdown():void</text><ellipse cx="661.5" cy="93.2422" fill="#84BE84" rx="3" ry="3" style="stroke:#038048;stroke-width:1;"/><text fill="#000000" font-family="sans-serif" font-size="14" font-style="italic" lengthAdjust="spacing" textLength="87.083" x="670.5" y="96.5889">callup():void</text><ellipse cx="661.5" cy="109.5391" fill="#84BE84" rx="3" ry="3" style="stroke:#038048;stroke-width:1;"/><text fill="#000000" font-family="sans-serif" font-size="14" font-style="italic" lengthAdjust="spacing" textLength="108.7871" x="670.5" y="112.8857">sendSMS():void</text></g><!--class IRouterProduct--><g class="entity" data-entity="IRouterProduct" data-source-line="14" data-uid="ent0004" id="entity_IRouterProduct"><rect fill="#F1F1F1" height="113.1875" rx="2.5" ry="2.5" style="stroke:#181818;stroke-width:0.5;" width="139.5723" x="1000.5" y="7"/><ellipse cx="1016.719" cy="23" fill="#B4A7E5" rx="11" ry="11" style="stroke:#181818;stroke-width:1;"/><path d="M1012.6409,18.7656 L1012.6409,16.6094 L1020.0315,16.6094 L1020.0315,18.7656 L1017.5628,18.7656 L1017.5628,26.8438 L1020.0315,26.8438 L1020.0315,29 L1012.6409,29 L1012.6409,26.8438 L1015.1097,26.8438 L1015.1097,18.7656 L1012.6409,18.7656 Z " fill="#000000"/><text fill="#000000" font-family="sans-serif" font-size="14" font-style="italic" lengthAdjust="spacing" textLength="104.8633" x="1030.9899" y="27.8467">IRouterProduct</text><line style="stroke:#181818;stroke-width:0.5;" x1="1001.5" x2="1139.0723" y1="39" y2="39"/><line style="stroke:#181818;stroke-width:0.5;" x1="1001.5" x2="1139.0723" y1="47" y2="47"/><ellipse cx="1011.5" cy="60.6484" fill="#84BE84" rx="3" ry="3" style="stroke:#038048;stroke-width:1;"/><text fill="#000000" font-family="sans-serif" font-size="14" font-style="italic" lengthAdjust="spacing" textLength="77.875" x="1020.5" y="63.9951">start():void</text><ellipse cx="1011.5" cy="76.9453" fill="#84BE84" rx="3" ry="3" style="stroke:#038048;stroke-width:1;"/><text fill="#000000" font-family="sans-serif" font-size="14" font-style="italic" lengthAdjust="spacing" textLength="113.5723" x="1020.5" y="80.292">shutdown():void</text><ellipse cx="1011.5" cy="93.2422" fill="#84BE84" rx="3" ry="3" style="stroke:#038048;stroke-width:1;"/><text fill="#000000" font-family="sans-serif" font-size="14" font-style="italic" lengthAdjust="spacing" textLength="104.3643" x="1020.5" y="96.5889">openwifi():void</text><ellipse cx="1011.5" cy="109.5391" fill="#84BE84" rx="3" ry="3" style="stroke:#038048;stroke-width:1;"/><text fill="#000000" font-family="sans-serif" font-size="14" font-style="italic" lengthAdjust="spacing" textLength="93.8027" x="1020.5" y="112.8857">setting():void</text></g><!--class HuaweiFactory--><g class="entity" data-entity="HuaweiFactory" data-source-line="22" data-uid="ent0005" id="entity_HuaweiFactory"><rect fill="#F1F1F1" height="80.5938" rx="2.5" ry="2.5" style="stroke:#181818;stroke-width:0.5;" width="243.2666" x="7" y="196"/><ellipse cx="72.2046" cy="212" fill="#ADD1B2" rx="11" ry="11" style="stroke:#181818;stroke-width:1;"/><path d="M75.1733,217.6406 Q74.5952,217.9375 73.9546,218.0781 Q73.314,218.2344 72.6108,218.2344 Q70.1108,218.2344 68.7827,216.5938 Q67.4702,214.9375 67.4702,211.8125 Q67.4702,208.6875 68.7827,207.0313 Q70.1108,205.375 72.6108,205.375 Q73.314,205.375 73.9546,205.5313 Q74.6108,205.6875 75.1733,205.9844 L75.1733,208.7031 Q74.5483,208.125 73.9546,207.8594 Q73.3608,207.5781 72.7358,207.5781 Q71.3921,207.5781 70.7046,208.6563 Q70.0171,209.7188 70.0171,211.8125 Q70.0171,213.9063 70.7046,214.9844 Q71.3921,216.0469 72.7358,216.0469 Q73.3608,216.0469 73.9546,215.7813 Q74.5483,215.5 75.1733,214.9219 L75.1733,217.6406 Z " fill="#000000"/><text fill="#000000" font-family="sans-serif" font-size="14" lengthAdjust="spacing" textLength="104.3574" x="92.7046" y="216.8467">HuaweiFactory</text><line style="stroke:#181818;stroke-width:0.5;" x1="8" x2="249.2666" y1="228" y2="228"/><line style="stroke:#181818;stroke-width:0.5;" x1="8" x2="249.2666" y1="236" y2="236"/><ellipse cx="18" cy="249.6484" fill="#84BE84" rx="3" ry="3" style="stroke:#038048;stroke-width:1;"/><text fill="#000000" font-family="sans-serif" font-size="14" lengthAdjust="spacing" textLength="214.3682" x="27" y="252.9951">phoneProduct():IPhoneProduct</text><ellipse cx="18" cy="265.9453" fill="#84BE84" rx="3" ry="3" style="stroke:#038048;stroke-width:1;"/><text fill="#000000" font-family="sans-serif" font-size="14" lengthAdjust="spacing" textLength="217.2666" x="27" y="269.292">routerProduct():IRouterProduct</text></g><!--class XiaomiFactory--><g class="entity" data-entity="XiaomiFactory" data-source-line="27" data-uid="ent0007" id="entity_XiaomiFactory"><rect fill="#F1F1F1" height="80.5938" rx="2.5" ry="2.5" style="stroke:#181818;stroke-width:0.5;" width="243.2666" x="285" y="196"/><ellipse cx="352.0947" cy="212" fill="#ADD1B2" rx="11" ry="11" style="stroke:#181818;stroke-width:1;"/><path d="M355.0635,217.6406 Q354.4854,217.9375 353.8447,218.0781 Q353.2041,218.2344 352.501,218.2344 Q350.001,218.2344 348.6729,216.5938 Q347.3604,214.9375 347.3604,211.8125 Q347.3604,208.6875 348.6729,207.0313 Q350.001,205.375 352.501,205.375 Q353.2041,205.375 353.8447,205.5313 Q354.501,205.6875 355.0635,205.9844 L355.0635,208.7031 Q354.4385,208.125 353.8447,207.8594 Q353.251,207.5781 352.626,207.5781 Q351.2822,207.5781 350.5947,208.6563 Q349.9072,209.7188 349.9072,211.8125 Q349.9072,213.9063 350.5947,214.9844 Q351.2822,216.0469 352.626,216.0469 Q353.251,216.0469 353.8447,215.7813 Q354.4385,215.5 355.0635,214.9219 L355.0635,217.6406 Z " fill="#000000"/><text fill="#000000" font-family="sans-serif" font-size="14" lengthAdjust="spacing" textLength="100.5771" x="372.5947" y="216.8467">XiaomiFactory</text><line style="stroke:#181818;stroke-width:0.5;" x1="286" x2="527.2666" y1="228" y2="228"/><line style="stroke:#181818;stroke-width:0.5;" x1="286" x2="527.2666" y1="236" y2="236"/><ellipse cx="296" cy="249.6484" fill="#84BE84" rx="3" ry="3" style="stroke:#038048;stroke-width:1;"/><text fill="#000000" font-family="sans-serif" font-size="14" lengthAdjust="spacing" textLength="214.3682" x="305" y="252.9951">phoneProduct():IPhoneProduct</text><ellipse cx="296" cy="265.9453" fill="#84BE84" rx="3" ry="3" style="stroke:#038048;stroke-width:1;"/><text fill="#000000" font-family="sans-serif" font-size="14" lengthAdjust="spacing" textLength="217.2666" x="305" y="269.292">routerProduct():IRouterProduct</text></g><!--class HuaweiPhone--><g class="entity" data-entity="HuaweiPhone" data-source-line="32" data-uid="ent0009" id="entity_HuaweiPhone"><rect fill="#F1F1F1" height="113.1875" rx="2.5" ry="2.5" style="stroke:#181818;stroke-width:0.5;" width="139.5723" x="563.5" y="180"/><ellipse cx="584.0226" cy="196" fill="#ADD1B2" rx="11" ry="11" style="stroke:#181818;stroke-width:1;"/><path d="M586.9914,201.6406 Q586.4132,201.9375 585.7726,202.0781 Q585.132,202.2344 584.4289,202.2344 Q581.9289,202.2344 580.6007,200.5938 Q579.2882,198.9375 579.2882,195.8125 Q579.2882,192.6875 580.6007,191.0313 Q581.9289,189.375 584.4289,189.375 Q585.132,189.375 585.7726,189.5313 Q586.4289,189.6875 586.9914,189.9844 L586.9914,192.7031 Q586.3664,192.125 585.7726,191.8594 Q585.1789,191.5781 584.5539,191.5781 Q583.2101,191.5781 582.5226,192.6563 Q581.8351,193.7188 581.8351,195.8125 Q581.8351,197.9063 582.5226,198.9844 Q583.2101,200.0469 584.5539,200.0469 Q585.1789,200.0469 585.7726,199.7813 Q586.3664,199.5 586.9914,198.9219 L586.9914,201.6406 Z " fill="#000000"/><text fill="#000000" font-family="sans-serif" font-size="14" lengthAdjust="spacing" textLength="95.2998" x="599.2499" y="200.8467">HuaweiPhone</text><line style="stroke:#181818;stroke-width:0.5;" x1="564.5" x2="702.0723" y1="212" y2="212"/><line style="stroke:#181818;stroke-width:0.5;" x1="564.5" x2="702.0723" y1="220" y2="220"/><ellipse cx="574.5" cy="233.6484" fill="#84BE84" rx="3" ry="3" style="stroke:#038048;stroke-width:1;"/><text fill="#000000" font-family="sans-serif" font-size="14" lengthAdjust="spacing" textLength="77.875" x="583.5" y="236.9951">start():void</text><ellipse cx="574.5" cy="249.9453" fill="#84BE84" rx="3" ry="3" style="stroke:#038048;stroke-width:1;"/><text fill="#000000" font-family="sans-serif" font-size="14" lengthAdjust="spacing" textLength="113.5723" x="583.5" y="253.292">shutdown():void</text><ellipse cx="574.5" cy="266.2422" fill="#84BE84" rx="3" ry="3" style="stroke:#038048;stroke-width:1;"/><text fill="#000000" font-family="sans-serif" font-size="14" lengthAdjust="spacing" textLength="87.083" x="583.5" y="269.5889">callup():void</text><ellipse cx="574.5" cy="282.5391" fill="#84BE84" rx="3" ry="3" style="stroke:#038048;stroke-width:1;"/><text fill="#000000" font-family="sans-serif" font-size="14" lengthAdjust="spacing" textLength="108.7871" x="583.5" y="285.8857">sendSMS():void</text></g><!--class XiaomiPhone--><g class="entity" data-entity="XiaomiPhone" data-source-line="39" data-uid="ent0011" id="entity_XiaomiPhone"><rect fill="#F1F1F1" height="113.1875" rx="2.5" ry="2.5" style="stroke:#181818;stroke-width:0.5;" width="139.5723" x="738.5" y="180"/><ellipse cx="760.7237" cy="196" fill="#ADD1B2" rx="11" ry="11" style="stroke:#181818;stroke-width:1;"/><path d="M763.6925,201.6406 Q763.1144,201.9375 762.4737,202.0781 Q761.8331,202.2344 761.13,202.2344 Q758.63,202.2344 757.3019,200.5938 Q755.9894,198.9375 755.9894,195.8125 Q755.9894,192.6875 757.3019,191.0313 Q758.63,189.375 761.13,189.375 Q761.8331,189.375 762.4737,189.5313 Q763.13,189.6875 763.6925,189.9844 L763.6925,192.7031 Q763.0675,192.125 762.4737,191.8594 Q761.88,191.5781 761.255,191.5781 Q759.9112,191.5781 759.2237,192.6563 Q758.5362,193.7188 758.5362,195.8125 Q758.5362,197.9063 759.2237,198.9844 Q759.9112,200.0469 761.255,200.0469 Q761.88,200.0469 762.4737,199.7813 Q763.0675,199.5 763.6925,198.9219 L763.6925,201.6406 Z " fill="#000000"/><text fill="#000000" font-family="sans-serif" font-size="14" lengthAdjust="spacing" textLength="91.5195" x="776.329" y="200.8467">XiaomiPhone</text><line style="stroke:#181818;stroke-width:0.5;" x1="739.5" x2="877.0723" y1="212" y2="212"/><line style="stroke:#181818;stroke-width:0.5;" x1="739.5" x2="877.0723" y1="220" y2="220"/><ellipse cx="749.5" cy="233.6484" fill="#84BE84" rx="3" ry="3" style="stroke:#038048;stroke-width:1;"/><text fill="#000000" font-family="sans-serif" font-size="14" lengthAdjust="spacing" textLength="77.875" x="758.5" y="236.9951">start():void</text><ellipse cx="749.5" cy="249.9453" fill="#84BE84" rx="3" ry="3" style="stroke:#038048;stroke-width:1;"/><text fill="#000000" font-family="sans-serif" font-size="14" lengthAdjust="spacing" textLength="113.5723" x="758.5" y="253.292">shutdown():void</text><ellipse cx="749.5" cy="266.2422" fill="#84BE84" rx="3" ry="3" style="stroke:#038048;stroke-width:1;"/><text fill="#000000" font-family="sans-serif" font-size="14" lengthAdjust="spacing" textLength="87.083" x="758.5" y="269.5889">callup():void</text><ellipse cx="749.5" cy="282.5391" fill="#84BE84" rx="3" ry="3" style="stroke:#038048;stroke-width:1;"/><text fill="#000000" font-family="sans-serif" font-size="14" lengthAdjust="spacing" textLength="108.7871" x="758.5" y="285.8857">sendSMS():void</text></g><!--class HuaweiRouter--><g class="entity" data-entity="HuaweiRouter" data-source-line="46" data-uid="ent0013" id="entity_HuaweiRouter"><rect fill="#F1F1F1" height="113.1875" rx="2.5" ry="2.5" style="stroke:#181818;stroke-width:0.5;" width="139.5723" x="913.5" y="180"/><ellipse cx="932.3769" cy="196" fill="#ADD1B2" rx="11" ry="11" style="stroke:#181818;stroke-width:1;"/><path d="M935.3456,201.6406 Q934.7675,201.9375 934.1269,202.0781 Q933.4862,202.2344 932.7831,202.2344 Q930.2831,202.2344 928.955,200.5938 Q927.6425,198.9375 927.6425,195.8125 Q927.6425,192.6875 928.955,191.0313 Q930.2831,189.375 932.7831,189.375 Q933.4862,189.375 934.1269,189.5313 Q934.7831,189.6875 935.3456,189.9844 L935.3456,192.7031 Q934.7206,192.125 934.1269,191.8594 Q933.5331,191.5781 932.9081,191.5781 Q931.5644,191.5781 930.8769,192.6563 Q930.1894,193.7188 930.1894,195.8125 Q930.1894,197.9063 930.8769,198.9844 Q931.5644,200.0469 932.9081,200.0469 Q933.5331,200.0469 934.1269,199.7813 Q934.7206,199.5 935.3456,198.9219 L935.3456,201.6406 Z " fill="#000000"/><text fill="#000000" font-family="sans-serif" font-size="14" lengthAdjust="spacing" textLength="98.957" x="947.2384" y="200.8467">HuaweiRouter</text><line style="stroke:#181818;stroke-width:0.5;" x1="914.5" x2="1052.0723" y1="212" y2="212"/><line style="stroke:#181818;stroke-width:0.5;" x1="914.5" x2="1052.0723" y1="220" y2="220"/><ellipse cx="924.5" cy="233.6484" fill="#84BE84" rx="3" ry="3" style="stroke:#038048;stroke-width:1;"/><text fill="#000000" font-family="sans-serif" font-size="14" lengthAdjust="spacing" textLength="77.875" x="933.5" y="236.9951">start():void</text><ellipse cx="924.5" cy="249.9453" fill="#84BE84" rx="3" ry="3" style="stroke:#038048;stroke-width:1;"/><text fill="#000000" font-family="sans-serif" font-size="14" lengthAdjust="spacing" textLength="113.5723" x="933.5" y="253.292">shutdown():void</text><ellipse cx="924.5" cy="266.2422" fill="#84BE84" rx="3" ry="3" style="stroke:#038048;stroke-width:1;"/><text fill="#000000" font-family="sans-serif" font-size="14" lengthAdjust="spacing" textLength="104.3643" x="933.5" y="269.5889">openwifi():void</text><ellipse cx="924.5" cy="282.5391" fill="#84BE84" rx="3" ry="3" style="stroke:#038048;stroke-width:1;"/><text fill="#000000" font-family="sans-serif" font-size="14" lengthAdjust="spacing" textLength="93.8027" x="933.5" y="285.8857">setting():void</text></g><!--class XiaomiRouter--><g class="entity" data-entity="XiaomiRouter" data-source-line="53" data-uid="ent0015" id="entity_XiaomiRouter"><rect fill="#F1F1F1" height="113.1875" rx="2.5" ry="2.5" style="stroke:#181818;stroke-width:0.5;" width="139.5723" x="1088.5" y="180"/><ellipse cx="1109.078" cy="196" fill="#ADD1B2" rx="11" ry="11" style="stroke:#181818;stroke-width:1;"/><path d="M1112.0467,201.6406 Q1111.4686,201.9375 1110.828,202.0781 Q1110.1874,202.2344 1109.4842,202.2344 Q1106.9842,202.2344 1105.6561,200.5938 Q1104.3436,198.9375 1104.3436,195.8125 Q1104.3436,192.6875 1105.6561,191.0313 Q1106.9842,189.375 1109.4842,189.375 Q1110.1874,189.375 1110.828,189.5313 Q1111.4842,189.6875 1112.0467,189.9844 L1112.0467,192.7031 Q1111.4217,192.125 1110.828,191.8594 Q1110.2342,191.5781 1109.6092,191.5781 Q1108.2655,191.5781 1107.578,192.6563 Q1106.8905,193.7188 1106.8905,195.8125 Q1106.8905,197.9063 1107.578,198.9844 Q1108.2655,200.0469 1109.6092,200.0469 Q1110.2342,200.0469 1110.828,199.7813 Q1111.4217,199.5 1112.0467,198.9219 L1112.0467,201.6406 Z " fill="#000000"/><text fill="#000000" font-family="sans-serif" font-size="14" lengthAdjust="spacing" textLength="95.1768" x="1124.3175" y="200.8467">XiaomiRouter</text><line style="stroke:#181818;stroke-width:0.5;" x1="1089.5" x2="1227.0723" y1="212" y2="212"/><line style="stroke:#181818;stroke-width:0.5;" x1="1089.5" x2="1227.0723" y1="220" y2="220"/><ellipse cx="1099.5" cy="233.6484" fill="#84BE84" rx="3" ry="3" style="stroke:#038048;stroke-width:1;"/><text fill="#000000" font-family="sans-serif" font-size="14" lengthAdjust="spacing" textLength="77.875" x="1108.5" y="236.9951">start():void</text><ellipse cx="1099.5" cy="249.9453" fill="#84BE84" rx="3" ry="3" style="stroke:#038048;stroke-width:1;"/><text fill="#000000" font-family="sans-serif" font-size="14" lengthAdjust="spacing" textLength="113.5723" x="1108.5" y="253.292">shutdown():void</text><ellipse cx="1099.5" cy="266.2422" fill="#84BE84" rx="3" ry="3" style="stroke:#038048;stroke-width:1;"/><text fill="#000000" font-family="sans-serif" font-size="14" lengthAdjust="spacing" textLength="104.3643" x="1108.5" y="269.5889">openwifi():void</text><ellipse cx="1099.5" cy="282.5391" fill="#84BE84" rx="3" ry="3" style="stroke:#038048;stroke-width:1;"/><text fill="#000000" font-family="sans-serif" font-size="14" lengthAdjust="spacing" textLength="93.8027" x="1108.5" y="285.8857">setting():void</text></g><!--reverse link IProductFactory to HuaweiFactory--><g class="link" data-entity-1="IProductFactory" data-entity-2="HuaweiFactory" data-source-line="23" data-uid="lnk6" id="link_IProductFactory_HuaweiFactory"><path d="M223.9088,118.1296 C201.5388,145.6596 183.19,168.21 160.8,195.76" fill="none" id="IProductFactory-backto-HuaweiFactory" style="stroke:#181818;stroke-width:1;stroke-dasharray:7,7;"/><polygon fill="none" points="235.26,104.16,219.2522,114.3458,228.5653,121.9133,235.26,104.16" style="stroke:#181818;stroke-width:1;"/></g><!--reverse link IProductFactory to XiaomiFactory--><g class="link" data-entity-1="IProductFactory" data-entity-2="XiaomiFactory" data-source-line="28" data-uid="lnk8" id="link_IProductFactory_XiaomiFactory"><path d="M311.0912,118.1296 C333.4612,145.6596 351.81,168.21 374.2,195.76" fill="none" id="IProductFactory-backto-XiaomiFactory" style="stroke:#181818;stroke-width:1;stroke-dasharray:7,7;"/><polygon fill="none" points="299.74,104.16,306.4347,121.9133,315.7478,114.3458,299.74,104.16" style="stroke:#181818;stroke-width:1;"/></g><!--reverse link IPhoneProduct to HuaweiPhone--><g class="link" data-entity-1="IPhoneProduct" data-entity-2="HuaweiPhone" data-source-line="33" data-uid="lnk10" id="link_IPhoneProduct_HuaweiPhone"><path d="M684.0901,136.0642 C674.3201,155.2742 671.53,160.75 661.75,179.97" fill="none" id="IPhoneProduct-backto-HuaweiPhone" style="stroke:#181818;stroke-width:1;stroke-dasharray:7,7;"/><polygon fill="none" points="692.25,120.02,678.742,133.3442,689.4382,138.7842,692.25,120.02" style="stroke:#181818;stroke-width:1;"/></g><!--reverse link IPhoneProduct to XiaomiPhone--><g class="link" data-entity-1="IPhoneProduct" data-entity-2="XiaomiPhone" data-source-line="40" data-uid="lnk12" id="link_IPhoneProduct_XiaomiPhone"><path d="M757.3092,136.0236 C767.1992,155.2336 770.03,160.75 779.92,179.97" fill="none" id="IPhoneProduct-backto-XiaomiPhone" style="stroke:#181818;stroke-width:1;stroke-dasharray:7,7;"/><polygon fill="none" points="749.07,120.02,751.9747,138.77,762.6438,133.2772,749.07,120.02" style="stroke:#181818;stroke-width:1;"/></g><!--reverse link IRouterProduct to HuaweiRouter--><g class="link" data-entity-1="IRouterProduct" data-entity-2="HuaweiRouter" data-source-line="47" data-uid="lnk14" id="link_IRouterProduct_HuaweiRouter"><path d="M1034.0901,136.0642 C1024.3201,155.2742 1021.53,160.75 1011.75,179.97" fill="none" id="IRouterProduct-backto-HuaweiRouter" style="stroke:#181818;stroke-width:1;stroke-dasharray:7,7;"/><polygon fill="none" points="1042.25,120.02,1028.742,133.3442,1039.4382,138.7842,1042.25,120.02" style="stroke:#181818;stroke-width:1;"/></g><!--reverse link IRouterProduct to XiaomiRouter--><g class="link" data-entity-1="IRouterProduct" data-entity-2="XiaomiRouter" data-source-line="54" data-uid="lnk16" id="link_IRouterProduct_XiaomiRouter"><path d="M1107.3092,136.0236 C1117.1992,155.2336 1120.03,160.75 1129.92,179.97" fill="none" id="IRouterProduct-backto-XiaomiRouter" style="stroke:#181818;stroke-width:1;stroke-dasharray:7,7;"/><polygon fill="none" points="1099.07,120.02,1101.9747,138.77,1112.6438,133.2772,1099.07,120.02" style="stroke:#181818;stroke-width:1;"/></g><!--SRC=[KrTurhVqQV_Yf-jcFTdPoPMPLv9Qb9QOdAhW6L2KdrAQNEAMc5oINrIfKCsbeA2jK9sOL5nI11IgLIZ8oCzBXIhIqBJo343YewijoYy5cekaE0XPWAkM2yLY98CmhIqkIIm26L6Mdvc28PTHMfAINvw7GpevCIUdj02NtjIyb63VO9WigfDGd4jLD-KNfEQLPwPbudHLIKbcNZgIgzGLdc_S3Osjv9p4uc85ZzB4yjHCM3nbvXRafEQcvfKKuuX2Wl56EB8WzaPa9kRd3e2z4F-2jQFQYfbkC286MsnW9WlCj83iuu6m6U9dI82WM8qjPH9bDxQ4XvdQaFrDRzi1]--></g></svg>