<svg xmlns="http://www.w3.org/2000/svg" xmlns:xlink="http://www.w3.org/1999/xlink" contentStyleType="text/css" data-diagram-type="CLASS" height="251px" preserveAspectRatio="none" style="width:978px;height:251px;background:#FFFFFF;" version="1.1" viewBox="0 0 978 251" width="978px" zoomAndPan="magnify"><defs/><g><!--class Strategy--><g class="entity" data-entity="Strategy" data-source-line="1" data-uid="ent0002" id="entity_Strategy"><rect fill="#F1F1F1" height="64.2969" rx="2.5" ry="2.5" style="stroke:#181818;stroke-width:0.5;" width="182.167" x="572.5" y="180"/><ellipse cx="629.3408" cy="196" fill="#B4A7E5" rx="11" ry="11" style="stroke:#181818;stroke-width:1;"/><path d="M625.2627,191.7656 L625.2627,189.6094 L632.6533,189.6094 L632.6533,191.7656 L630.1846,191.7656 L630.1846,199.8438 L632.6533,199.8438 L632.6533,202 L625.2627,202 L625.2627,199.8438 L627.7314,199.8438 L627.7314,191.7656 L625.2627,191.7656 Z " fill="#000000"/><text fill="#000000" font-family="sans-serif" font-size="14" font-style="italic" lengthAdjust="spacing" textLength="59.9854" x="649.8408" y="200.8467">Strategy</text><line style="stroke:#181818;stroke-width:0.5;" x1="573.5" x2="753.667" y1="212" y2="212"/><line style="stroke:#181818;stroke-width:0.5;" x1="573.5" x2="753.667" y1="220" y2="220"/><ellipse cx="583.5" cy="233.6484" fill="#84BE84" rx="3" ry="3" style="stroke:#038048;stroke-width:1;"/><text fill="#000000" font-family="sans-serif" font-size="14" font-style="italic" lengthAdjust="spacing" textLength="156.167" x="592.5" y="236.9951">strategyMethod():void</text></g><!--class ConcreteStrategyA--><g class="entity" data-entity="ConcreteStrategyA" data-source-line="5" data-uid="ent0003" id="entity_ConcreteStrategyA"><rect fill="#F1F1F1" height="64.2969" rx="2.5" ry="2.5" style="stroke:#181818;stroke-width:0.5;" width="182.167" x="572.5" y="31.5"/><ellipse cx="595.2498" cy="47.5" fill="#ADD1B2" rx="11" ry="11" style="stroke:#181818;stroke-width:1;"/><path d="M598.2185,53.1406 Q597.6404,53.4375 596.9998,53.5781 Q596.3591,53.7344 595.656,53.7344 Q593.156,53.7344 591.8279,52.0938 Q590.5154,50.4375 590.5154,47.3125 Q590.5154,44.1875 591.8279,42.5313 Q593.156,40.875 595.656,40.875 Q596.3591,40.875 596.9998,41.0313 Q597.656,41.1875 598.2185,41.4844 L598.2185,44.2031 Q597.5935,43.625 596.9998,43.3594 Q596.406,43.0781 595.781,43.0781 Q594.4373,43.0781 593.7498,44.1563 Q593.0623,45.2188 593.0623,47.3125 Q593.0623,49.4063 593.7498,50.4844 Q594.4373,51.5469 595.781,51.5469 Q596.406,51.5469 596.9998,51.2813 Q597.5935,51 598.2185,50.4219 L598.2185,53.1406 Z " fill="#000000"/><text fill="#000000" font-family="sans-serif" font-size="14" lengthAdjust="spacing" textLength="132.9453" x="610.9719" y="52.3467">ConcreteStrategyA</text><line style="stroke:#181818;stroke-width:0.5;" x1="573.5" x2="753.667" y1="63.5" y2="63.5"/><line style="stroke:#181818;stroke-width:0.5;" x1="573.5" x2="753.667" y1="71.5" y2="71.5"/><ellipse cx="583.5" cy="85.1484" fill="#84BE84" rx="3" ry="3" style="stroke:#038048;stroke-width:1;"/><text fill="#000000" font-family="sans-serif" font-size="14" lengthAdjust="spacing" textLength="156.167" x="592.5" y="88.4951">strategyMethod():void</text></g><!--class ConcreteStrategyB--><g class="entity" data-entity="ConcreteStrategyB" data-source-line="9" data-uid="ent0004" id="entity_ConcreteStrategyB"><rect fill="#F1F1F1" height="64.2969" rx="2.5" ry="2.5" style="stroke:#181818;stroke-width:0.5;" width="182.167" x="789.5" y="31.5"/><ellipse cx="812.2375" cy="47.5" fill="#ADD1B2" rx="11" ry="11" style="stroke:#181818;stroke-width:1;"/><path d="M815.2062,53.1406 Q814.6281,53.4375 813.9875,53.5781 Q813.3468,53.7344 812.6437,53.7344 Q810.1437,53.7344 808.8156,52.0938 Q807.5031,50.4375 807.5031,47.3125 Q807.5031,44.1875 808.8156,42.5313 Q810.1437,40.875 812.6437,40.875 Q813.3468,40.875 813.9875,41.0313 Q814.6437,41.1875 815.2062,41.4844 L815.2062,44.2031 Q814.5812,43.625 813.9875,43.3594 Q813.3937,43.0781 812.7687,43.0781 Q811.425,43.0781 810.7375,44.1563 Q810.05,45.2188 810.05,47.3125 Q810.05,49.4063 810.7375,50.4844 Q811.425,51.5469 812.7687,51.5469 Q813.3937,51.5469 813.9875,51.2813 Q814.5812,51 815.2062,50.4219 L815.2062,53.1406 Z " fill="#000000"/><text fill="#000000" font-family="sans-serif" font-size="14" lengthAdjust="spacing" textLength="132.9727" x="827.9569" y="52.3467">ConcreteStrategyB</text><line style="stroke:#181818;stroke-width:0.5;" x1="790.5" x2="970.667" y1="63.5" y2="63.5"/><line style="stroke:#181818;stroke-width:0.5;" x1="790.5" x2="970.667" y1="71.5" y2="71.5"/><ellipse cx="800.5" cy="85.1484" fill="#84BE84" rx="3" ry="3" style="stroke:#038048;stroke-width:1;"/><text fill="#000000" font-family="sans-serif" font-size="14" lengthAdjust="spacing" textLength="156.167" x="809.5" y="88.4951">strategyMethod():void</text></g><!--class Context--><g class="entity" data-entity="Context" data-source-line="13" data-uid="ent0005" id="entity_Context"><rect fill="#F1F1F1" height="113.1875" rx="2.5" ry="2.5" style="stroke:#181818;stroke-width:0.5;" width="275.4775" x="262" y="7"/><ellipse cx="367.9434" cy="23" fill="#ADD1B2" rx="11" ry="11" style="stroke:#181818;stroke-width:1;"/><path d="M370.9121,28.6406 Q370.334,28.9375 369.6934,29.0781 Q369.0527,29.2344 368.3496,29.2344 Q365.8496,29.2344 364.5215,27.5938 Q363.209,25.9375 363.209,22.8125 Q363.209,19.6875 364.5215,18.0313 Q365.8496,16.375 368.3496,16.375 Q369.0527,16.375 369.6934,16.5313 Q370.3496,16.6875 370.9121,16.9844 L370.9121,19.7031 Q370.2871,19.125 369.6934,18.8594 Q369.0996,18.5781 368.4746,18.5781 Q367.1309,18.5781 366.4434,19.6563 Q365.7559,20.7188 365.7559,22.8125 Q365.7559,24.9063 366.4434,25.9844 Q367.1309,27.0469 368.4746,27.0469 Q369.0996,27.0469 369.6934,26.7813 Q370.2871,26.5 370.9121,25.9219 L370.9121,28.6406 Z " fill="#000000"/><text fill="#000000" font-family="sans-serif" font-size="14" lengthAdjust="spacing" textLength="55.0908" x="388.4434" y="27.8467">Context</text><line style="stroke:#181818;stroke-width:0.5;" x1="263" x2="536.4775" y1="39" y2="39"/><rect fill="none" height="6" style="stroke:#C82930;stroke-width:1;" width="6" x="270" y="49.6484"/><text fill="#000000" font-family="sans-serif" font-size="14" lengthAdjust="spacing" textLength="123.0947" x="282" y="55.9951">strategy:Strategy</text><line style="stroke:#181818;stroke-width:0.5;" x1="263" x2="536.4775" y1="63.2969" y2="63.2969"/><ellipse cx="273" cy="76.9453" fill="#84BE84" rx="3" ry="3" style="stroke:#038048;stroke-width:1;"/><text fill="#000000" font-family="sans-serif" font-size="14" lengthAdjust="spacing" textLength="249.4775" x="282" y="80.292">setStrategy(Strategy strategy):void</text><ellipse cx="273" cy="93.2422" fill="#84BE84" rx="3" ry="3" style="stroke:#038048;stroke-width:1;"/><text fill="#000000" font-family="sans-serif" font-size="14" lengthAdjust="spacing" textLength="158.6006" x="282" y="96.5889">getStrategy():Strategy</text><ellipse cx="273" cy="109.5391" fill="#84BE84" rx="3" ry="3" style="stroke:#038048;stroke-width:1;"/><text fill="#000000" font-family="sans-serif" font-size="14" lengthAdjust="spacing" textLength="156.167" x="282" y="112.8857">strategyMethod():void</text></g><path d="M6,31 L6,86.3984 A0,0 0 0 0 6,86.3984 L227.4146,86.3984 A0,0 0 0 0 227.4146,86.3984 L227.4146,62.6992 L266,108.0391 L227.4146,54.6992 L227.4146,41 L217.4146,31 L6,31 A0,0 0 0 0 6,31" fill="#FEFFDD" style="stroke:#181818;stroke-width:0.5;"/><path d="M217.4146,31 L217.4146,41 L227.4146,41 L217.4146,31" fill="#FEFFDD" style="stroke:#181818;stroke-width:0.5;"/><text fill="#000000" font-family="sans-serif" font-size="13" lengthAdjust="spacing" textLength="200.4146" x="12" y="48.0669">public void strategyMethod() {</text><text fill="#000000" font-family="sans-serif" font-size="13" lengthAdjust="spacing" textLength="175.8555" x="28.5293" y="63.1997">strategy.strategyMethod();</text><text fill="#000000" font-family="sans-serif" font-size="13" lengthAdjust="spacing" textLength="8.271" x="12" y="78.3325">}</text><!--link ConcreteStrategyA to Strategy--><g class="link" data-entity-1="ConcreteStrategyA" data-entity-2="Strategy" data-source-line="21" data-uid="lnk6" id="link_ConcreteStrategyA_Strategy"><path codeLine="21" d="M663.5,95.57 C663.5,120.43 663.5,137.13 663.5,161.98" fill="none" id="ConcreteStrategyA-to-Strategy" style="stroke:#181818;stroke-width:1;stroke-dasharray:7,7;"/><polygon fill="none" points="663.5,179.98,669.5,161.98,657.5,161.98,663.5,179.98" style="stroke:#181818;stroke-width:1;"/></g><!--link ConcreteStrategyB to Strategy--><g class="link" data-entity-1="ConcreteStrategyB" data-entity-2="Strategy" data-source-line="22" data-uid="lnk7" id="link_ConcreteStrategyB_Strategy"><path codeLine="22" d="M834.48,95.57 C797.65,120.43 761.1787,145.0586 724.3687,169.9086" fill="none" id="ConcreteStrategyB-to-Strategy" style="stroke:#181818;stroke-width:1;stroke-dasharray:7,7;"/><polygon fill="none" points="709.45,179.98,727.7258,174.8815,721.0115,164.9357,709.45,179.98" style="stroke:#181818;stroke-width:1;"/></g><!--reverse link Context to Strategy--><g class="link" data-entity-1="Context" data-entity-2="Strategy" data-source-line="25" data-uid="lnk8" id="link_Context_Strategy"><path codeLine="25" d="M510.1725,125.9131 C546.6425,146.1531 576.06,162.48 607.36,179.85" fill="none" id="Context-backto-Strategy" style="stroke:#181818;stroke-width:1;"/><polygon fill="none" points="499.68,120.09,502.9852,126.499,510.1725,125.9131,506.8673,119.504,499.68,120.09" style="stroke:#181818;stroke-width:1;"/></g><!--SRC=[oymhIIrAIqnELGWkAKeiIKslLAZcKb3GLgXEJ2e6YYINr2eKGsLyKqioybCqDAtAyZDJk6gvk99p4ekB5PppyvABKajIOGOuGaqWKPiJqTfAKYjAm8fruOgjOAP0Z4WjWV4ruDw2AOKQ25ANZgHE4yq8NAvGLtYwRjxplWrFMpS_txoR2zFpUderTl30vCBq9QeyoBpMpIyQfo3C0tilNrSNIL5UVacgGavg6b0y3HO2LbQeRkGgA4tAoKnM03aKm_dWu5A02-kXori3lPQQbw80iWW0]--></g></svg>