<svg xmlns="http://www.w3.org/2000/svg" xmlns:xlink="http://www.w3.org/1999/xlink" contentStyleType="text/css" data-diagram-type="CLASS" height="453px" preserveAspectRatio="none" style="width:237px;height:453px;background:#FFFFFF;" version="1.1" viewBox="0 0 237 453" width="237px" zoomAndPan="magnify"><defs/><g><!--class BMW--><g class="entity" data-entity="BMW" data-source-line="1" data-uid="ent0002" id="entity_BMW"><rect fill="#F1F1F1" height="48" rx="2.5" ry="2.5" style="stroke:#181818;stroke-width:0.5;" width="67.5264" x="84" y="7"/><ellipse cx="99" cy="23" fill="#A9DCDF" rx="11" ry="11" style="stroke:#181818;stroke-width:1;"/><path d="M99.1094,18.3438 L97.9531,23.4219 L100.2813,23.4219 L99.1094,18.3438 Z M97.625,16.1094 L100.6094,16.1094 L103.9688,28.5 L101.5156,28.5 L100.75,25.4375 L97.4688,25.4375 L96.7188,28.5 L94.2813,28.5 L97.625,16.1094 Z " fill="#000000"/><text fill="#000000" font-family="sans-serif" font-size="14" font-style="italic" lengthAdjust="spacing" textLength="35.5264" x="113" y="27.8467">BMW</text><line style="stroke:#181818;stroke-width:0.5;" x1="85" x2="150.5264" y1="39" y2="39"/><line style="stroke:#181818;stroke-width:0.5;" x1="85" x2="150.5264" y1="47" y2="47"/></g><!--class BMW320--><g class="entity" data-entity="BMW320" data-source-line="2" data-uid="ent0003" id="entity_BMW320"><rect fill="#F1F1F1" height="48" rx="2.5" ry="2.5" style="stroke:#181818;stroke-width:0.5;" width="94.248" x="7" y="116"/><ellipse cx="22" cy="132" fill="#ADD1B2" rx="11" ry="11" style="stroke:#181818;stroke-width:1;"/><path d="M24.9688,137.6406 Q24.3906,137.9375 23.75,138.0781 Q23.1094,138.2344 22.4063,138.2344 Q19.9063,138.2344 18.5781,136.5938 Q17.2656,134.9375 17.2656,131.8125 Q17.2656,128.6875 18.5781,127.0313 Q19.9063,125.375 22.4063,125.375 Q23.1094,125.375 23.75,125.5313 Q24.4063,125.6875 24.9688,125.9844 L24.9688,128.7031 Q24.3438,128.125 23.75,127.8594 Q23.1563,127.5781 22.5313,127.5781 Q21.1875,127.5781 20.5,128.6563 Q19.8125,129.7188 19.8125,131.8125 Q19.8125,133.9063 20.5,134.9844 Q21.1875,136.0469 22.5313,136.0469 Q23.1563,136.0469 23.75,135.7813 Q24.3438,135.5 24.9688,134.9219 L24.9688,137.6406 Z " fill="#000000"/><text fill="#000000" font-family="sans-serif" font-size="14" lengthAdjust="spacing" textLength="62.248" x="36" y="136.8467">BMW320</text><line style="stroke:#181818;stroke-width:0.5;" x1="8" x2="100.248" y1="148" y2="148"/><line style="stroke:#181818;stroke-width:0.5;" x1="8" x2="100.248" y1="156" y2="156"/></g><!--class BMW523--><g class="entity" data-entity="BMW523" data-source-line="3" data-uid="ent0004" id="entity_BMW523"><rect fill="#F1F1F1" height="48" rx="2.5" ry="2.5" style="stroke:#181818;stroke-width:0.5;" width="94.248" x="136" y="116"/><ellipse cx="151" cy="132" fill="#ADD1B2" rx="11" ry="11" style="stroke:#181818;stroke-width:1;"/><path d="M153.9688,137.6406 Q153.3906,137.9375 152.75,138.0781 Q152.1094,138.2344 151.4063,138.2344 Q148.9063,138.2344 147.5781,136.5938 Q146.2656,134.9375 146.2656,131.8125 Q146.2656,128.6875 147.5781,127.0313 Q148.9063,125.375 151.4063,125.375 Q152.1094,125.375 152.75,125.5313 Q153.4063,125.6875 153.9688,125.9844 L153.9688,128.7031 Q153.3438,128.125 152.75,127.8594 Q152.1563,127.5781 151.5313,127.5781 Q150.1875,127.5781 149.5,128.6563 Q148.8125,129.7188 148.8125,131.8125 Q148.8125,133.9063 149.5,134.9844 Q150.1875,136.0469 151.5313,136.0469 Q152.1563,136.0469 152.75,135.7813 Q153.3438,135.5 153.9688,134.9219 L153.9688,137.6406 Z " fill="#000000"/><text fill="#000000" font-family="sans-serif" font-size="14" lengthAdjust="spacing" textLength="62.248" x="165" y="136.8467">BMW523</text><line style="stroke:#181818;stroke-width:0.5;" x1="137" x2="229.248" y1="148" y2="148"/><line style="stroke:#181818;stroke-width:0.5;" x1="137" x2="229.248" y1="156" y2="156"/></g><!--class FactoryBMW--><g class="entity" data-entity="FactoryBMW" data-source-line="4" data-uid="ent0005" id="entity_FactoryBMW"><rect fill="#F1F1F1" height="64.2969" rx="2.5" ry="2.5" style="stroke:#181818;stroke-width:0.5;" width="151.542" x="42" y="241"/><ellipse cx="71.2159" cy="257" fill="#ADD1B2" rx="11" ry="11" style="stroke:#181818;stroke-width:1;"/><path d="M74.1846,262.6406 Q73.6065,262.9375 72.9659,263.0781 Q72.3252,263.2344 71.6221,263.2344 Q69.1221,263.2344 67.794,261.5938 Q66.4815,259.9375 66.4815,256.8125 Q66.4815,253.6875 67.794,252.0313 Q69.1221,250.375 71.6221,250.375 Q72.3252,250.375 72.9659,250.5313 Q73.6221,250.6875 74.1846,250.9844 L74.1846,253.7031 Q73.5596,253.125 72.9659,252.8594 Q72.3721,252.5781 71.7471,252.5781 Q70.4034,252.5781 69.7159,253.6563 Q69.0284,254.7188 69.0284,256.8125 Q69.0284,258.9063 69.7159,259.9844 Q70.4034,261.0469 71.7471,261.0469 Q72.3721,261.0469 72.9659,260.7813 Q73.5596,260.5 74.1846,259.9219 L74.1846,262.6406 Z " fill="#000000"/><text fill="#000000" font-family="sans-serif" font-size="14" lengthAdjust="spacing" textLength="87.9512" x="88.375" y="261.8467">FactoryBMW</text><line style="stroke:#181818;stroke-width:0.5;" x1="43" x2="192.542" y1="273" y2="273"/><line style="stroke:#181818;stroke-width:0.5;" x1="43" x2="192.542" y1="281" y2="281"/><ellipse cx="53" cy="294.6484" fill="#84BE84" rx="3" ry="3" style="stroke:#038048;stroke-width:1;"/><text fill="#000000" font-family="sans-serif" font-size="14" lengthAdjust="spacing" textLength="125.542" x="62" y="297.9951">createBMW():void</text></g><!--class ??--><g class="entity" data-entity=".." data-source-line="8" data-uid="ent0006" id="entity_.."><rect fill="#F1F1F1" height="80.5938" rx="2.5" ry="2.5" style="stroke:#181818;stroke-width:0.5;" width="103.6904" x="66" y="366"/><ellipse cx="100.6607" cy="382" fill="#ADD1B2" rx="11" ry="11" style="stroke:#181818;stroke-width:1;"/><path d="M103.6294,387.6406 Q103.0513,387.9375 102.4107,388.0781 Q101.7701,388.2344 101.0669,388.2344 Q98.5669,388.2344 97.2388,386.5938 Q95.9263,384.9375 95.9263,381.8125 Q95.9263,378.6875 97.2388,377.0313 Q98.5669,375.375 101.0669,375.375 Q101.7701,375.375 102.4107,375.5313 Q103.0669,375.6875 103.6294,375.9844 L103.6294,378.7031 Q103.0044,378.125 102.4107,377.8594 Q101.8169,377.5781 101.1919,377.5781 Q99.8482,377.5781 99.1607,378.6563 Q98.4732,379.7188 98.4732,381.8125 Q98.4732,383.9063 99.1607,384.9844 Q99.8482,386.0469 101.1919,386.0469 Q101.8169,386.0469 102.4107,385.7813 Q103.0044,385.5 103.6294,384.9219 L103.6294,387.6406 Z " fill="#000000"/><text fill="#000000" font-family="sans-serif" font-size="14" lengthAdjust="spacing" textLength="28" x="119.0297" y="386.8467">&#23458;&#25143;</text><line style="stroke:#181818;stroke-width:0.5;" x1="67" x2="168.6904" y1="398" y2="398"/><rect fill="none" height="6" style="stroke:#C82930;stroke-width:1;" width="6" x="74" y="408.6484"/><text fill="#000000" font-family="sans-serif" font-size="14" lengthAdjust="spacing" textLength="77.6904" x="86" y="414.9951">&#23453;&#39532;320:int</text><rect fill="none" height="6" style="stroke:#C82930;stroke-width:1;" width="6" x="74" y="424.9453"/><text fill="#000000" font-family="sans-serif" font-size="14" lengthAdjust="spacing" textLength="77.6904" x="86" y="431.292">&#23453;&#39532;523:int</text><line style="stroke:#181818;stroke-width:0.5;" x1="67" x2="168.6904" y1="438.5938" y2="438.5938"/></g><!--reverse link BMW to BMW320--><g class="link" data-entity-1="BMW" data-entity-2="BMW320" data-source-line="13" data-uid="lnk7" id="link_BMW_BMW320"><path codeLine="13" d="M94.8706,70.6678 C84.1406,88.6078 78.59,97.89 67.86,115.83" fill="none" id="BMW-backto-BMW320" style="stroke:#181818;stroke-width:1;"/><polygon fill="none" points="104.11,55.22,89.7214,67.588,100.0199,73.7476,104.11,55.22" style="stroke:#181818;stroke-width:1;"/></g><!--reverse link BMW to BMW523--><g class="link" data-entity-1="BMW" data-entity-2="BMW523" data-source-line="14" data-uid="lnk8" id="link_BMW_BMW523"><path codeLine="14" d="M141.4528,70.5994 C152.3628,88.5394 158.03,97.89 168.92,115.83" fill="none" id="BMW-backto-BMW523" style="stroke:#181818;stroke-width:1;"/><polygon fill="none" points="132.1,55.22,136.3263,73.717,146.5792,67.4818,132.1,55.22" style="stroke:#181818;stroke-width:1;"/></g><!--reverse link BMW523 to FactoryBMW--><g class="link" data-entity-1="BMW523" data-entity-2="FactoryBMW" data-source-line="15" data-uid="lnk9" id="link_BMW523_FactoryBMW"><path codeLine="15" d="M168.8629,169.4946 C158.2929,190.7946 145.19,217.2 133.5,240.76" fill="none" id="BMW523-backto-FactoryBMW" style="stroke:#181818;stroke-width:1;stroke-dasharray:7,7;"/><polygon fill="#181818" points="171.53,164.12,163.9462,170.4038,169.3074,168.5988,171.1124,173.96,171.53,164.12" style="stroke:#181818;stroke-width:1;"/><text fill="#000000" font-family="sans-serif" font-size="13" lengthAdjust="spacing" textLength="26" x="157" y="207.0669">&#29983;&#20135;</text></g><!--reverse link BMW320 to FactoryBMW--><g class="link" data-entity-1="BMW320" data-entity-2="FactoryBMW" data-source-line="16" data-uid="lnk10" id="link_BMW320_FactoryBMW"><path codeLine="16" d="M67.9246,169.5106 C78.3346,190.8106 91.23,217.2 102.74,240.76" fill="none" id="BMW320-backto-FactoryBMW" style="stroke:#181818;stroke-width:1;stroke-dasharray:7,7;"/><polygon fill="#181818" points="65.29,164.12,65.6481,173.9623,67.4855,168.6122,72.8356,170.4496,65.29,164.12" style="stroke:#181818;stroke-width:1;"/><text fill="#000000" font-family="sans-serif" font-size="13" lengthAdjust="spacing" textLength="26" x="89" y="207.0669">&#29983;&#20135;</text></g><!--reverse link FactoryBMW to ??--><g class="link" data-entity-1="FactoryBMW" data-entity-2=".." data-source-line="17" data-uid="lnk11" id="link_FactoryBMW_.."><path codeLine="17" d="M118,311.16 C118,329.24 118,346.19 118,365.58" fill="none" id="FactoryBMW-backto-&#23458;&#25143;" style="stroke:#181818;stroke-width:1;stroke-dasharray:7,7;"/><polygon fill="#181818" points="118,305.16,114,314.16,118,310.16,122,314.16,118,305.16" style="stroke:#181818;stroke-width:1;"/></g><!--SRC=[IqmgBYbAJ2vHICv9B2vMSF8DvuApZ8qC41nJ8sCenmseFB-e4YYcKCsb00JQ2ib5gOabgK0H3KshilpC5AvQBgZYf-iMFUlO3bMe2-JEVRbo3T1Wgyoy4XGneFbWCQ1EaCasDRgwC3SWyq7EW50ADdfw2ATOFPyo_yckvLmGBTZba1mEb8Sw3G00]--></g></svg>