<svg xmlns="http://www.w3.org/2000/svg" xmlns:xlink="http://www.w3.org/1999/xlink" contentStyleType="text/css" data-diagram-type="CLASS" height="583px" preserveAspectRatio="none" style="width:525px;height:583px;background:#FFFFFF;" version="1.1" viewBox="0 0 525 583" width="525px" zoomAndPan="magnify"><defs/><g><!--class Subject--><g class="entity" data-entity="Subject" data-source-line="1" data-uid="ent0002" id="entity_Subject"><rect fill="#F1F1F1" height="96.8906" rx="2.5" ry="2.5" style="stroke:#181818;stroke-width:0.5;" width="178.4824" x="194.21" y="338.78"/><ellipse cx="253.0332" cy="354.78" fill="#A9DCDF" rx="11" ry="11" style="stroke:#181818;stroke-width:1;"/><path d="M253.1426,350.1238 L251.9864,355.2019 L254.3145,355.2019 L253.1426,350.1238 Z M251.6582,347.8894 L254.6426,347.8894 L258.002,360.28 L255.5489,360.28 L254.7832,357.2175 L251.502,357.2175 L250.752,360.28 L248.3145,360.28 L251.6582,347.8894 Z " fill="#000000"/><text fill="#000000" font-family="sans-serif" font-size="14" font-style="italic" lengthAdjust="spacing" textLength="52.3359" x="273.5332" y="359.6267">Subject</text><line style="stroke:#181818;stroke-width:0.5;" x1="195.21" x2="371.6924" y1="370.78" y2="370.78"/><line style="stroke:#181818;stroke-width:0.5;" x1="195.21" x2="371.6924" y1="378.78" y2="378.78"/><ellipse cx="205.21" cy="392.4284" fill="#84BE84" rx="3" ry="3" style="stroke:#038048;stroke-width:1;"/><text fill="#000000" font-family="sans-serif" font-size="14" lengthAdjust="spacing" textLength="149.0508" x="214.21" y="395.7751">attach(Observer obs)</text><ellipse cx="205.21" cy="408.7253" fill="#84BE84" rx="3" ry="3" style="stroke:#038048;stroke-width:1;"/><text fill="#000000" font-family="sans-serif" font-size="14" lengthAdjust="spacing" textLength="152.4824" x="214.21" y="412.072">detach(Observer obs)</text><ellipse cx="205.21" cy="425.0222" fill="#84BE84" rx="3" ry="3" style="stroke:#038048;stroke-width:1;"/><text fill="#000000" font-family="sans-serif" font-size="14" lengthAdjust="spacing" textLength="50.9551" x="214.21" y="428.3689">notify()</text></g><!--class Observer--><g class="entity" data-entity="Observer" data-source-line="7" data-uid="ent0003" id="entity_Observer"><rect fill="#F1F1F1" height="64.2969" rx="2.5" ry="2.5" style="stroke:#181818;stroke-width:0.5;" width="96.2236" x="392.34" y="512.67"/><ellipse cx="407.34" cy="528.67" fill="#B4A7E5" rx="11" ry="11" style="stroke:#181818;stroke-width:1;"/><path d="M403.2619,524.4356 L403.2619,522.2794 L410.6525,522.2794 L410.6525,524.4356 L408.1838,524.4356 L408.1838,532.5138 L410.6525,532.5138 L410.6525,534.67 L403.2619,534.67 L403.2619,532.5138 L405.7306,532.5138 L405.7306,524.4356 L403.2619,524.4356 Z " fill="#000000"/><text fill="#000000" font-family="sans-serif" font-size="14" font-style="italic" lengthAdjust="spacing" textLength="64.2236" x="421.34" y="533.5167">Observer</text><line style="stroke:#181818;stroke-width:0.5;" x1="393.34" x2="487.5636" y1="544.67" y2="544.67"/><line style="stroke:#181818;stroke-width:0.5;" x1="393.34" x2="487.5636" y1="552.67" y2="552.67"/><ellipse cx="403.34" cy="566.3184" fill="#84BE84" rx="3" ry="3" style="stroke:#038048;stroke-width:1;"/><text fill="#000000" font-family="sans-serif" font-size="14" font-style="italic" lengthAdjust="spacing" textLength="60.252" x="412.34" y="569.6651">update()</text></g><!--class ConcreteSubject--><g class="entity" data-entity="ConcreteSubject" data-source-line="11" data-uid="ent0004" id="entity_ConcreteSubject"><rect fill="#F1F1F1" height="96.8906" rx="2.5" ry="2.5" style="stroke:#181818;stroke-width:0.5;" width="147.7188" x="123.6" y="180.89"/><ellipse cx="138.6" cy="196.89" fill="#ADD1B2" rx="11" ry="11" style="stroke:#181818;stroke-width:1;"/><path d="M141.5688,202.5306 Q140.9906,202.8275 140.35,202.9681 Q139.7094,203.1244 139.0063,203.1244 Q136.5063,203.1244 135.1781,201.4838 Q133.8656,199.8275 133.8656,196.7025 Q133.8656,193.5775 135.1781,191.9213 Q136.5063,190.265 139.0063,190.265 Q139.7094,190.265 140.35,190.4213 Q141.0063,190.5775 141.5688,190.8744 L141.5688,193.5931 Q140.9438,193.015 140.35,192.7494 Q139.7563,192.4681 139.1313,192.4681 Q137.7875,192.4681 137.1,193.5463 Q136.4125,194.6088 136.4125,196.7025 Q136.4125,198.7963 137.1,199.8744 Q137.7875,200.9369 139.1313,200.9369 Q139.7563,200.9369 140.35,200.6713 Q140.9438,200.39 141.5688,199.8119 L141.5688,202.5306 Z " fill="#000000"/><text fill="#000000" font-family="sans-serif" font-size="14" lengthAdjust="spacing" textLength="115.7188" x="152.6" y="201.7367">ConcreteSubject</text><line style="stroke:#181818;stroke-width:0.5;" x1="124.6" x2="270.3188" y1="212.89" y2="212.89"/><rect fill="none" height="6" style="stroke:#C82930;stroke-width:1;" width="6" x="131.6" y="223.5384"/><text fill="#000000" font-family="sans-serif" font-size="14" lengthAdjust="spacing" textLength="96.9678" x="143.6" y="229.8851">subjectState :</text><line style="stroke:#181818;stroke-width:0.5;" x1="124.6" x2="270.3188" y1="237.1869" y2="237.1869"/><ellipse cx="134.6" cy="250.8353" fill="#84BE84" rx="3" ry="3" style="stroke:#038048;stroke-width:1;"/><text fill="#000000" font-family="sans-serif" font-size="14" lengthAdjust="spacing" textLength="70.9707" x="143.6" y="254.182">getState()</text><ellipse cx="134.6" cy="267.1322" fill="#84BE84" rx="3" ry="3" style="stroke:#038048;stroke-width:1;"/><text fill="#000000" font-family="sans-serif" font-size="14" lengthAdjust="spacing" textLength="69.3779" x="143.6" y="270.4789">setState()</text></g><!--class ConcreteObserver--><g class="entity" data-entity="ConcreteObserver" data-source-line="17" data-uid="ent0005" id="entity_ConcreteObserver"><rect fill="#F1F1F1" height="96.8906" rx="2.5" ry="2.5" style="stroke:#181818;stroke-width:0.5;" width="206.0791" x="312.42" y="7"/><ellipse cx="348.3327" cy="23" fill="#ADD1B2" rx="11" ry="11" style="stroke:#181818;stroke-width:1;"/><path d="M351.3014,28.6406 Q350.7233,28.9375 350.0827,29.0781 Q349.4421,29.2344 348.7389,29.2344 Q346.2389,29.2344 344.9108,27.5938 Q343.5983,25.9375 343.5983,22.8125 Q343.5983,19.6875 344.9108,18.0313 Q346.2389,16.375 348.7389,16.375 Q349.4421,16.375 350.0827,16.5313 Q350.7389,16.6875 351.3014,16.9844 L351.3014,19.7031 Q350.6764,19.125 350.0827,18.8594 Q349.4889,18.5781 348.8639,18.5781 Q347.5202,18.5781 346.8327,19.6563 Q346.1452,20.7188 346.1452,22.8125 Q346.1452,24.9063 346.8327,25.9844 Q347.5202,27.0469 348.8639,27.0469 Q349.4889,27.0469 350.0827,26.7813 Q350.6764,26.5 351.3014,25.9219 L351.3014,28.6406 Z " fill="#000000"/><text fill="#000000" font-family="sans-serif" font-size="14" lengthAdjust="spacing" textLength="127.6064" x="366.98" y="27.8467">ConcreteObserver</text><line style="stroke:#181818;stroke-width:0.5;" x1="313.42" x2="517.4991" y1="39" y2="39"/><rect fill="none" height="6" style="stroke:#C82930;stroke-width:1;" width="6" x="320.42" y="49.6484"/><text fill="#000000" font-family="sans-serif" font-size="14" lengthAdjust="spacing" textLength="107.9941" x="332.42" y="55.9951">observerState :</text><rect fill="none" height="6" style="stroke:#C82930;stroke-width:1;" width="6" x="320.42" y="65.9453"/><text fill="#000000" font-family="sans-serif" font-size="14" lengthAdjust="spacing" textLength="180.0791" x="332.42" y="72.292">subject : ConcreteSubject</text><line style="stroke:#181818;stroke-width:0.5;" x1="313.42" x2="517.4991" y1="79.5938" y2="79.5938"/><ellipse cx="323.42" cy="93.2422" fill="#84BE84" rx="3" ry="3" style="stroke:#038048;stroke-width:1;"/><text fill="#000000" font-family="sans-serif" font-size="14" lengthAdjust="spacing" textLength="60.252" x="332.42" y="96.5889">update()</text></g><path d="M6,354.53 L6,409.9284 A0,0 0 0 0 6,409.9284 L158.9106,409.9284 A0,0 0 0 0 158.9106,409.9284 L158.9106,386.2292 L198.21,423.5222 L158.9106,378.2292 L158.9106,364.53 L148.9106,354.53 L6,354.53 A0,0 0 0 0 6,354.53" fill="#FEFFDD" style="stroke:#181818;stroke-width:0.5;"/><path d="M148.9106,354.53 L148.9106,364.53 L158.9106,364.53 L148.9106,354.53" fill="#FEFFDD" style="stroke:#181818;stroke-width:0.5;"/><text fill="#000000" font-family="sans-serif" font-size="13" lengthAdjust="spacing" textLength="131.9106" x="12" y="371.5969">for(obs:observers) {</text><text fill="#000000" font-family="sans-serif" font-size="13" lengthAdjust="spacing" textLength="87.439" x="20.2646" y="386.7297">obs.update();</text><text fill="#000000" font-family="sans-serif" font-size="13" lengthAdjust="spacing" textLength="8.271" x="12" y="401.8625">}</text><path d="M306.8,211.77 L306.8,220.3364 L214.5707,249.3353 L306.8,228.3364 L306.8,236.9028 A0,0 0 0 0 306.8,236.9028 L458.1047,236.9028 A0,0 0 0 0 458.1047,236.9028 L458.1047,221.77 L448.1047,211.77 L306.8,211.77 A0,0 0 0 0 306.8,211.77" fill="#FEFFDD" style="stroke:#181818;stroke-width:0.5;"/><path d="M448.1047,211.77 L448.1047,221.77 L458.1047,221.77 L448.1047,211.77" fill="#FEFFDD" style="stroke:#181818;stroke-width:0.5;"/><text fill="#000000" font-family="sans-serif" font-size="13" lengthAdjust="spacing" textLength="130.3047" x="312.8" y="228.8369">return subjectState;</text><path d="M31.86,37.88 L31.86,63.0128 A0,0 0 0 0 31.86,63.0128 L277.0529,63.0128 A0,0 0 0 0 277.0529,63.0128 L277.0529,55.88 L316.42,91.7422 L277.0529,47.88 L277.0529,47.88 L267.0529,37.88 L31.86,37.88 A0,0 0 0 0 31.86,37.88" fill="#FEFFDD" style="stroke:#181818;stroke-width:0.5;"/><path d="M267.0529,37.88 L267.0529,47.88 L277.0529,47.88 L267.0529,37.88" fill="#FEFFDD" style="stroke:#181818;stroke-width:0.5;"/><text fill="#000000" font-family="sans-serif" font-size="13" lengthAdjust="spacing" textLength="224.1929" x="37.86" y="54.9469">observerState=subject.getState();</text><!--link Subject to Observer--><g class="link" data-entity-1="Subject" data-entity-2="Observer" data-source-line="24" data-uid="lnk6" id="link_Subject_Observer"><path codeLine="24" d="M339.9343,444.2061 C365.0043,469.0461 382.2191,486.1057 404.3891,508.0857" fill="none" id="Subject-Observer" style="stroke:#181818;stroke-width:1;"/><polygon fill="none" points="331.41,435.76,332.8568,442.8245,339.9343,444.2061,338.4875,437.1416,331.41,435.76" style="stroke:#181818;stroke-width:1;"/><polygon fill="#181818" points="408.65,512.31,405.0749,503.1329,405.0993,508.7897,399.4425,508.8141,408.65,512.31" style="stroke:#181818;stroke-width:1;"/><text fill="#000000" font-family="sans-serif" font-size="13" lengthAdjust="spacing" textLength="64.1304" x="376.46" y="478.7369">observers</text></g><!--link ConcreteSubject to Subject--><g class="link" data-entity-1="ConcreteSubject" data-entity-2="Subject" data-source-line="25" data-uid="lnk7" id="link_ConcreteSubject_Subject"><path codeLine="25" d="M223.73,277.96 C234.3,297.12 237.7759,303.4189 248.3559,322.5989" fill="none" id="ConcreteSubject-to-Subject" style="stroke:#181818;stroke-width:1;"/><polygon fill="none" points="257.05,338.36,253.6096,319.7009,243.1022,325.4969,257.05,338.36" style="stroke:#181818;stroke-width:1;"/></g><!--link ConcreteObserver to Observer--><g class="link" data-entity-1="ConcreteObserver" data-entity-2="Observer" data-source-line="26" data-uid="lnk8" id="link_ConcreteObserver_Observer"><path codeLine="26" d="M444.74,104.23 C456.8,126.64 469.36,154.24 475.46,180.89 C502.95,301.23 473.1842,431.5095 455.0842,495.0095" fill="none" id="ConcreteObserver-to-Observer" style="stroke:#181818;stroke-width:1;stroke-dasharray:7,7;"/><polygon fill="none" points="450.15,512.32,460.8543,496.6542,449.314,493.3648,450.15,512.32" style="stroke:#181818;stroke-width:1;"/></g><!--link ConcreteObserver to ConcreteSubject--><g class="link" data-entity-1="ConcreteObserver" data-entity-2="ConcreteSubject" data-source-line="27" data-uid="lnk9" id="link_ConcreteObserver_ConcreteSubject"><path codeLine="27" d="M354.73,104.33 C324.62,128.07 293.0615,152.9549 262.9415,176.7049" fill="none" id="ConcreteObserver-to-ConcreteSubject" style="stroke:#181818;stroke-width:1;"/><polygon fill="#181818" points="258.23,180.42,267.774,177.9884,262.1562,177.3241,262.8205,171.7064,258.23,180.42" style="stroke:#181818;stroke-width:1;"/><text fill="#000000" font-family="sans-serif" font-size="13" lengthAdjust="spacing" textLength="47.1187" x="313.46" y="146.9569">subject</text></g><!--SRC=[XP6nJiCm48RtUuhRI8IS1t155nw0eK_W91SegX9aEqYexLXLOc23aPa98ML2F4zJyHOujHsJH0XlTsV__tV-HQgq59d6R2MKmaMTtfAfre3cdAFGMcGtqLMgIDwJn2fLiHlbzEUehFIoU8XYs08iIqso41bXVzEBhuKpts9zbmjDzeKbkQpAJ9Ac8H53PUk5DlUHevEw9jk9F88AZOda28HrwAV6GBItCeqHZFFu3Ns6XrrpRBx0yrQCpSFAlFTGCDwCiStSVpnC69Da4tIcuyvb9CWTTmVLldospVFX_VNuzD4sRz_xHp3X4AweC8Y5j-NSHWP59ID3odlQ-FH9fapyjZEpBfLv5pB1K6qCmdqiOBgrB0VXpVvJyJjoRgrX4DE5qqf2z47n1m00]--></g></svg>